<svg width="100" height="80" viewBox="0 0 100 80" fill="none" xmlns="http://www.w3.org/2000/svg">
<path d="M15.7439 15.3617C15.8131 14.3104 16.686 13.493 17.7396 13.493H46.2218C46.8535 13.493 47.448 13.7915 47.8255 14.298L56.5688 26.0305C56.9462 26.537 57.5408 26.8354 58.1725 26.8354H97.8281C98.9976 26.8354 99.9175 27.8344 99.8213 28.9999L95.815 77.5353C95.7294 78.5726 94.8625 79.3708 93.8217 79.3708H13.6664C12.5101 79.3708 11.5948 78.3932 11.6707 77.2394L15.7439 15.3617Z" fill="#26734E"/>
<rect x="16.3742" y="0.5" width="74.4023" height="78.3708" rx="1.5" fill="#EEEEEE" stroke="#DDE1E8"/>
<rect x="24.6049" y="7.9371" width="30.9546" height="5.55596" rx="2" fill="#DDE1E8"/>
<rect x="24.6049" y="20.6364" width="58.7344" height="5.55596" rx="2" fill="#DDE1E8"/>
<path d="M0.455382 21.5761C0.219091 20.343 1.16412 19.1997 2.41964 19.1997H30.3549C30.9865 19.1997 31.5811 19.4981 31.9585 20.0046L40.7018 31.7371C41.0793 32.2436 41.6738 32.542 42.3055 32.542H82.5658C83.4862 32.542 84.2877 33.1701 84.5078 34.0638L95.0533 76.8927C95.3637 78.1533 94.4095 79.3709 93.1113 79.3709H13.1835C12.2241 79.3709 11.3998 78.6896 11.2193 77.7473L0.455382 21.5761Z" fill="#459C72"/>
</svg>
