<svg width="100" height="66" viewBox="0 0 100 66" fill="none" xmlns="http://www.w3.org/2000/svg">
<path d="M15.7439 1.86863C15.8131 0.817331 16.686 0 17.7396 0H46.2218C46.8535 0 47.448 0.298413 47.8255 0.80491L56.5688 12.5374C56.9462 13.0439 57.5408 13.3423 58.1724 13.3423H97.8281C98.9975 13.3423 99.9175 14.3414 99.8213 15.5069L95.815 64.0423C95.7293 65.0796 94.8625 65.8778 93.8217 65.8778H13.6664C12.5101 65.8778 11.5947 64.9002 11.6707 63.7464L15.7439 1.86863Z" fill="#E4DC0B"/>
<path d="M0.455382 8.08304C0.219091 6.84996 1.16412 5.70663 2.41964 5.70663H30.3549C30.9865 5.70663 31.5811 6.00505 31.9585 6.51154L40.7018 18.2441C41.0793 18.7506 41.6738 19.049 42.3055 19.049H82.5658C83.4862 19.049 84.2877 19.6771 84.5078 20.5708L95.0533 63.3997C95.3637 64.6602 94.4095 65.8778 93.1113 65.8778H13.1835C12.2241 65.8778 11.3998 65.1965 11.2193 64.2543L0.455382 8.08304Z" fill="#E8EB5F"/>
</svg>
